<svg xmlns="http://www.w3.org/2000/svg" viewBox="0 0 64 64" aria-hidden="true">
  <defs>
    <linearGradient id="wa-bg" x1="0" y1="0" x2="1" y2="1">
      <stop offset="0%" stop-color="#37d66b"/>
      <stop offset="100%" stop-color="#0ca94e"/>
    </linearGradient>
  </defs>
  <rect width="64" height="64" rx="20" fill="url(#wa-bg)"/>
  <path d="M32 14c-9.9 0-18 8-18 17.9 0 3.2.8 6.1 2.4 8.8l-2.3 8.8 9-2.2c2.5 1.3 5.3 2 8.1 2 9.9 0 17.9-8 17.9-17.9S41.9 14 32 14Z" fill="#fff" opacity=".16"/>
  <path d="M25.9 22.7c-.5 0-.9.2-1.2.8l-1.8 4.1c-.3.6-.2 1.3.1 1.9 1.5 2.9 4.3 7.4 9.4 10 1.1.6 2.4.5 3.4-.2l3.4-2.4c.6-.4.8-1.2.4-1.8l-1.8-3c-.4-.6-1.2-.9-1.9-.6l-2.1.8c-.4.2-.8.1-1.2-.1-1.2-.8-2.4-1.8-3.5-3-.3-.3-.4-.8-.3-1.2l.7-2c.2-.6.1-1.2-.3-1.6l-2.4-2.7a1.6 1.6 0 0 0-1.3-.6Z" fill="#fff"/>
</svg>
